<?xml version="1.0" encoding="utf-8"?>
<!-- Generator: Adobe Illustrator 26.2.1, SVG Export Plug-In . SVG Version: 6.00 Build 0)  -->
<svg version="1.1" id="icon" xmlns="http://www.w3.org/2000/svg" xmlns:xlink="http://www.w3.org/1999/xlink" x="0px" y="0px"
	 viewBox="0 0 32 32" style="enable-background:new 0 0 32 32;" xml:space="preserve">
<style type="text/css">
	.st0{fill:#FFFFFF;}
</style>
<path class="st0" d="M24.4,14.3L16.9,2.5c-0.4-0.5-1.1-0.6-1.6-0.3c-0.1,0.1-0.2,0.2-0.3,0.3L7.6,14.4C6.6,16,6,18,5.9,19.9
	C5.9,25.5,10.4,30,16,30s10.1-4.5,10.1-10.1C26,17.9,25.4,16,24.4,14.3z M16,27.8c-4.3,0-7.8-3.5-7.8-7.8c0.1-1.6,0.5-3.1,1.4-4.4
	l1-1.7l11.3,11.3C20.4,26.8,18.2,27.8,16,27.8z"/>
</svg>
