<?xml version="1.0" encoding="utf-8"?>
<!-- Generator: Adobe Illustrator 26.2.1, SVG Export Plug-In . SVG Version: 6.00 Build 0)  -->
<svg version="1.1" id="Layer_1" xmlns="http://www.w3.org/2000/svg" xmlns:xlink="http://www.w3.org/1999/xlink" x="0px" y="0px"
	 viewBox="0 0 32 32" style="enable-background:new 0 0 32 32;" xml:space="preserve">
<style type="text/css">
	.st0{fill:#FFFFFF;}
</style>
<path class="st0" d="M4,14c0-0.6,0.4-1,1-1h10c2.2,0,4-1.8,4-4s-1.8-4-4-4s-4,1.8-4,4c0,0.6-0.4,1-1,1S9,9.6,9,9c0-3.3,2.7-6,6-6
	s6,2.7,6,6s-2.7,6-6,6H5C4.4,15,4,14.6,4,14z M20,21H6c-0.6,0-1,0.4-1,1s0.4,1,1,1h14c1.1,0,2,0.9,2,2s-0.9,2-2,2s-2-0.9-2-2
	c0-0.6-0.4-1-1-1s-1,0.4-1,1c0,2.2,1.8,4,4,4s4-1.8,4-4S22.2,21,20,21z M24,7c-0.3,0-0.7,0-1,0.1c-0.5,0.1-0.9,0.6-0.8,1.2
	c0.1,0.5,0.6,0.9,1.2,0.8C23.5,9,23.8,9,24,9c2.2,0,4,1.8,4,4s-1.8,4-4,4H3c-0.6,0-1,0.4-1,1s0.4,1,1,1h21c3.3,0,6-2.7,6-6
	S27.3,7,24,7z"/>
</svg>
